HIERARCHY
ROOT mixamorig:Hips
{
	OFFSET 0.000000 201.639420 0.000000
	CHANNELS 6 Xposition Yposition Zposition Xrotation Yrotation Zrotation
	JOINT mixamorig:Spine
	{
		OFFSET 0.006200 19.524994 -2.481800
		CHANNELS 3 Xrotation Yrotation Zrotation
		JOINT mixamorig:Spine1
		{
			OFFSET -0.000900 22.835007 -2.825400
			CHANNELS 3 Xrotation Yrotation Zrotation
			JOINT mixamorig:Spine2
			{
				OFFSET -0.020600 26.552490 -3.193300
				CHANNELS 3 Xrotation Yrotation Zrotation
				JOINT mixamorig:Neck
				{
					OFFSET -0.060000 30.701813 1.352200
					CHANNELS 3 Xrotation Yrotation Zrotation
					JOINT mixamorig:Head
					{
						OFFSET -0.087200 22.547607 3.670900
						CHANNELS 3 Xrotation Yrotation Zrotation
						JOINT mixamorig:HeadTop_End
						{
							OFFSET -0.830600 40.355194 7.893500
							CHANNELS 3 Xrotation Yrotation Zrotation
							End Site
							{
								OFFSET 0.000000 30.592346 0.000000
							}
						}
						JOINT mixamorig:RightEye
						{
							OFFSET -6.302100 18.118591 16.197100
							CHANNELS 3 Xrotation Yrotation Zrotation
							End Site
							{
								OFFSET 0.000000 30.592346 0.000000
							}
						}
						JOINT mixamorig:LeftEye
						{
							OFFSET 6.741500 18.382690 16.401899
							CHANNELS 3 Xrotation Yrotation Zrotation
							End Site
							{
								OFFSET 0.000000 30.592346 0.000000
							}
						}
					}
				}
				JOINT mixamorig:LeftShoulder
				{
					OFFSET 11.924900 18.230499 1.425400
					CHANNELS 3 Xrotation Yrotation Zrotation
					JOINT mixamorig:LeftArm
					{
						OFFSET 25.435989 -0.697632 -5.229300
						CHANNELS 3 Xrotation Yrotation Zrotation
						JOINT mixamorig:LeftForeArm
						{
							OFFSET 54.684776 0.000000 0.000000
							CHANNELS 3 Xrotation Yrotation Zrotation
							JOINT mixamorig:LeftHand
							{
								OFFSET 55.098175 0.000000 0.000000
								CHANNELS 3 Xrotation Yrotation Zrotation
								JOINT mixamorig:LeftHandMiddle1
								{
									OFFSET 23.369751 0.000000 0.000000
									CHANNELS 3 Xrotation Yrotation Zrotation
									JOINT mixamorig:LeftHandMiddle2
									{
										OFFSET 6.378677 0.000000 0.000000
										CHANNELS 3 Xrotation Yrotation Zrotation
										JOINT mixamorig:LeftHandMiddle3
										{
											OFFSET 6.148331 0.000000 0.000000
											CHANNELS 3 Xrotation Yrotation Zrotation
											JOINT mixamorig:LeftHandMiddle4
											{
												OFFSET 6.582504 0.000000 0.000000
												CHANNELS 3 Xrotation Yrotation Zrotation
												End Site
												{
													OFFSET -1.168900 6.395691 1.028606
												}
											}
										}
									}
								}
								JOINT mixamorig:LeftHandThumb1
								{
									OFFSET 7.235672 -3.848206 5.434273
									CHANNELS 3 Xrotation Yrotation Zrotation
									JOINT mixamorig:LeftHandThumb2
									{
										OFFSET 6.568451 -3.792297 3.792300
										CHANNELS 3 Xrotation Yrotation Zrotation
										JOINT mixamorig:LeftHandThumb3
										{
											OFFSET 6.063080 -3.500519 3.500518
											CHANNELS 3 Xrotation Yrotation Zrotation
											JOINT mixamorig:LeftHandThumb4
											{
												OFFSET 4.793182 -2.767334 2.767349
												CHANNELS 3 Xrotation Yrotation Zrotation
												End Site
												{
													OFFSET 0.101639 6.054260 1.275483
												}
											}
										}
									}
								}
								JOINT mixamorig:LeftHandIndex1
								{
									OFFSET 23.101074 -0.309540 4.992809
									CHANNELS 3 Xrotation Yrotation Zrotation
									JOINT mixamorig:LeftHandIndex2
									{
										OFFSET 6.226883 0.000000 0.000000
										CHANNELS 3 Xrotation Yrotation Zrotation
										JOINT mixamorig:LeftHandIndex3
										{
											OFFSET 6.094330 0.000000 0.000000
											CHANNELS 3 Xrotation Yrotation Zrotation
											JOINT mixamorig:LeftHandIndex4
											{
												OFFSET 5.482605 0.000000 0.000000
												CHANNELS 3 Xrotation Yrotation Zrotation
												End Site
												{
													OFFSET -1.427902 5.233032 0.797164
												}
											}
										}
									}
								}
								JOINT mixamorig:LeftHandRing1
								{
									OFFSET 22.299240 0.021149 -3.964172
									CHANNELS 3 Xrotation Yrotation Zrotation
									JOINT mixamorig:LeftHandRing2
									{
										OFFSET 6.321869 0.000000 0.000000
										CHANNELS 3 Xrotation Yrotation Zrotation
										JOINT mixamorig:LeftHandRing3
										{
											OFFSET 5.899796 0.000000 0.000000
											CHANNELS 3 Xrotation Yrotation Zrotation
											JOINT mixamorig:LeftHandRing4
											{
												OFFSET 6.517899 0.000000 0.000000
												CHANNELS 3 Xrotation Yrotation Zrotation
												End Site
												{
													OFFSET -1.637299 6.232208 0.980890
												}
											}
										}
									}
								}
								JOINT mixamorig:LeftHandPinky1
								{
									OFFSET 20.463791 -0.302338 -8.562233
									CHANNELS 3 Xrotation Yrotation Zrotation
									JOINT mixamorig:LeftHandPinky2
									{
										OFFSET 6.908646 0.000000 0.000000
										CHANNELS 3 Xrotation Yrotation Zrotation
										JOINT mixamorig:LeftHandPinky3
										{
											OFFSET 4.622849 0.000000 0.000000
											CHANNELS 3 Xrotation Yrotation Zrotation
											JOINT mixamorig:LeftHandPinky4
											{
												OFFSET 5.216080 0.000000 0.000000
												CHANNELS 3 Xrotation Yrotation Zrotation
												End Site
												{
													OFFSET -0.606308 5.116241 0.814926
												}
											}
										}
									}
								}
							}
						}
					}
				}
				JOINT mixamorig:RightShoulder
				{
					OFFSET -12.001300 18.284088 1.348900
					CHANNELS 3 Xrotation Yrotation Zrotation
					JOINT mixamorig:RightArm
					{
						OFFSET -25.308500 -0.751312 -5.164599
						CHANNELS 3 Xrotation Yrotation Zrotation
						JOINT mixamorig:RightForeArm
						{
							OFFSET -54.684429 0.000000 0.000000
							CHANNELS 3 Xrotation Yrotation Zrotation
							JOINT mixamorig:RightHand
							{
								OFFSET -55.150291 0.000000 0.000000
								CHANNELS 3 Xrotation Yrotation Zrotation
								JOINT mixamorig:RightHandMiddle1
								{
									OFFSET -23.317566 0.000000 0.000000
									CHANNELS 3 Xrotation Yrotation Zrotation
									JOINT mixamorig:RightHandMiddle2
									{
										OFFSET -6.378403 0.000000 0.000000
										CHANNELS 3 Xrotation Yrotation Zrotation
										JOINT mixamorig:RightHandMiddle3
										{
											OFFSET -6.148193 0.000000 0.000000
											CHANNELS 3 Xrotation Yrotation Zrotation
											JOINT mixamorig:RightHandMiddle4
											{
												OFFSET -6.583389 0.000000 0.000000
												CHANNELS 3 Xrotation Yrotation Zrotation
												End Site
												{
													OFFSET 1.171692 6.395905 1.029786
												}
											}
										}
									}
								}
								JOINT mixamorig:RightHandThumb1
								{
									OFFSET -7.190521 -3.860474 5.435846
									CHANNELS 3 Xrotation Yrotation Zrotation
									JOINT mixamorig:RightHandThumb2
									{
										OFFSET -6.567429 -3.791718 3.791708
										CHANNELS 3 Xrotation Yrotation Zrotation
										JOINT mixamorig:RightHandThumb3
										{
											OFFSET -6.062469 -3.500153 3.500166
											CHANNELS 3 Xrotation Yrotation Zrotation
											JOINT mixamorig:RightHandThumb4
											{
												OFFSET -4.792618 -2.767029 2.767022
												CHANNELS 3 Xrotation Yrotation Zrotation
												End Site
												{
													OFFSET -0.100327 6.053253 1.276754
												}
											}
										}
									}
								}
								JOINT mixamorig:RightHandIndex1
								{
									OFFSET -23.048981 -0.310791 4.992554
									CHANNELS 3 Xrotation Yrotation Zrotation
									JOINT mixamorig:RightHandIndex2
									{
										OFFSET -6.227539 0.000000 0.000000
										CHANNELS 3 Xrotation Yrotation Zrotation
										JOINT mixamorig:RightHandIndex3
										{
											OFFSET -6.095047 0.000000 0.000000
											CHANNELS 3 Xrotation Yrotation Zrotation
											JOINT mixamorig:RightHandIndex4
											{
												OFFSET -5.484772 0.000000 0.000000
												CHANNELS 3 Xrotation Yrotation Zrotation
												End Site
												{
													OFFSET 1.420593 5.237305 0.797056
												}
											}
										}
									}
								}
								JOINT mixamorig:RightHandRing1
								{
									OFFSET -22.246323 0.020569 -3.963762
									CHANNELS 3 Xrotation Yrotation Zrotation
									JOINT mixamorig:RightHandRing2
									{
										OFFSET -6.322128 0.000000 0.000000
										CHANNELS 3 Xrotation Yrotation Zrotation
										JOINT mixamorig:RightHandRing3
										{
											OFFSET -5.900024 0.000000 0.000000
											CHANNELS 3 Xrotation Yrotation Zrotation
											JOINT mixamorig:RightHandRing4
											{
												OFFSET -6.518356 0.000000 0.000000
												CHANNELS 3 Xrotation Yrotation Zrotation
												End Site
												{
													OFFSET 1.636398 6.232697 0.982186
												}
											}
										}
									}
								}
								JOINT mixamorig:RightHandPinky1
								{
									OFFSET -20.411011 -0.303314 -8.561701
									CHANNELS 3 Xrotation Yrotation Zrotation
									JOINT mixamorig:RightHandPinky2
									{
										OFFSET -6.907349 0.000000 0.000000
										CHANNELS 3 Xrotation Yrotation Zrotation
										JOINT mixamorig:RightHandPinky3
										{
											OFFSET -4.623840 0.000000 0.000000
											CHANNELS 3 Xrotation Yrotation Zrotation
											JOINT mixamorig:RightHandPinky4
											{
												OFFSET -5.218353 0.000000 0.000000
												CHANNELS 3 Xrotation Yrotation Zrotation
												End Site
												{
													OFFSET 0.602097 5.118835 0.816273
												}
											}
										}
									}
								}
							}
						}
					}
				}
			}
		}
	}
	JOINT mixamorig:LeftUpLeg
	{
		OFFSET 18.168400 -13.561905 -0.039000
		CHANNELS 3 Xrotation Yrotation Zrotation
		JOINT mixamorig:LeftLeg
		{
			OFFSET 0.577358 -80.825211 -3.695000
			CHANNELS 3 Xrotation Yrotation Zrotation
			JOINT mixamorig:LeftFoot
			{
				OFFSET -0.577356 -83.370262 -6.520700
				CHANNELS 3 Xrotation Yrotation Zrotation
				JOINT mixamorig:LeftToeBase
				{
					OFFSET 0.750401 -20.798306 25.135401
					CHANNELS 3 Xrotation Yrotation Zrotation
					JOINT mixamorig:LeftToe_End
					{
						OFFSET -0.000500 0.001200 19.917799
						CHANNELS 3 Xrotation Yrotation Zrotation
						End Site
						{
							OFFSET 0.000000 19.917805 0.000000
						}
					}
				}
			}
		}
	}
	JOINT mixamorig:RightUpLeg
	{
		OFFSET -18.162500 -13.585098 -0.041000
		CHANNELS 3 Xrotation Yrotation Zrotation
		JOINT mixamorig:RightLeg
		{
			OFFSET -0.595024 -80.945297 -3.631900
			CHANNELS 3 Xrotation Yrotation Zrotation
			JOINT mixamorig:RightFoot
			{
				OFFSET 0.595024 -83.218193 -6.561200
				CHANNELS 3 Xrotation Yrotation Zrotation
				JOINT mixamorig:RightToeBase
				{
					OFFSET -0.753601 -20.807106 25.115000
					CHANNELS 3 Xrotation Yrotation Zrotation
					JOINT mixamorig:RightToe_End
					{
						OFFSET 0.000299 0.001700 19.918200
						CHANNELS 3 Xrotation Yrotation Zrotation
						End Site
						{
							OFFSET 0.000000 19.918203 0.000000
						}
					}
				}
			}
		}
	}
}
MOTION
Frames: 5
Frame Time: 0.033333
-59.186802 231.384735 268.838959 3.103654 33.661061 -18.158048 3.892084 1.198747 -0.376636 7.834288 2.000048 -2.290903 7.834297 2.000058 -2.290907 14.795281 -0.235409 -0.766935 -3.394133 -14.616596 20.893489 0.000001 0.000000 0.000000 0.000001 0.000000 0.000000 0.000001 0.000000 0.000000 -1.384783 4.180695 9.495125 51.190130 96.271831 -74.371792 -0.409525 -110.582170 -0.230718 67.880175 19.333373 -12.844703 1.641877 7.127210 -4.239657 -0.187976 -0.789344 -15.969020 -0.000004 -0.000005 0.000001 -0.000000 -0.000001 -0.000001 7.350869 -14.484214 -10.934823 -1.067070 0.182847 1.946095 0.000009 0.000010 0.000001 0.000002 -0.000002 0.000003 5.776138 -9.584530 -10.641323 0.033749 0.666540 -10.636467 0.000001 -0.000014 -0.000000 -0.000000 0.000000 -0.000001 1.677293 11.039968 -8.046050 -0.183050 -2.876868 -23.912154 0.000002 0.000009 0.000000 0.000001 0.000001 -0.000002 0.734597 28.047564 -16.218779 -0.849522 -6.142177 -29.148269 -0.000007 0.000005 0.000006 -0.000001 0.000000 0.000001 0.082293 -3.315386 -12.968912 -38.464463 -29.467717 -20.161052 0.005099 65.309080 -0.172456 -4.960197 -0.248748 -30.040521 -1.738478 -1.670997 3.393780 -0.252695 0.798112 21.448273 -0.000002 0.000003 0.000003 0.000001 -0.000000 -0.000002 -4.978396 12.391676 9.407253 -1.210152 -0.220434 -2.120996 0.000000 0.000009 -0.000005 -0.000002 0.000001 0.000001 10.258588 13.576560 6.067478 0.012525 -0.647889 4.076588 -0.000001 -0.000002 -0.000015 0.000001 -0.000000 -0.000002 -0.824285 -13.700957 18.348837 -0.242206 2.213606 16.221211 -0.000003 0.000003 -0.000009 0.000001 0.000001 0.000004 -4.380730 -23.900589 30.060339 -0.233913 5.125302 12.870286 0.000002 -0.000001 0.000004 0.000000 -0.000001 -0.000004 -27.844403 -5.967843 17.715665 31.408205 0.252103 -1.097181 24.156817 10.665592 -16.223274 1.079147 -0.026872 0.011967 -0.000000 0.000000 -0.000000 -18.580068 16.963912 3.007938 14.889059 -0.246710 0.364858 38.571362 -18.919148 18.577835 -0.012181 -0.109708 0.262084 -0.000000 0.000000 0.000000 
-60.518867 204.937408 276.862305 3.292115 36.338454 -16.020730 3.808677 1.081353 -0.337095 7.658934 1.826304 -2.080159 7.658939 1.826288 -2.080156 13.532942 -0.546878 -1.064986 -6.025181 -16.525953 20.545626 -0.000002 0.000000 -0.000000 -0.000002 0.000000 -0.000000 -0.000002 0.000000 -0.000000 -1.194857 3.971925 10.158582 124.127610 87.212971 -146.779959 -0.423000 -112.815805 -0.229969 65.868288 18.547251 15.019740 1.641882 7.127210 -4.239658 -0.187963 -0.789337 -15.969034 -0.000003 -0.000002 -0.000003 -0.000001 -0.000000 0.000002 7.350866 -14.484215 -10.934833 -1.067071 0.182837 1.946093 0.000005 0.000008 0.000006 -0.000001 -0.000001 0.000004 5.776142 -9.584533 -10.641319 0.033748 0.666523 -10.636462 -0.000001 -0.000015 -0.000002 -0.000001 -0.000000 -0.000001 1.677310 11.039967 -8.046060 -0.183068 -2.876874 -23.912164 -0.000006 0.000009 -0.000000 -0.000000 0.000001 -0.000003 0.734606 28.047562 -16.218796 -0.849520 -6.142189 -29.148252 -0.000010 0.000005 0.000003 -0.000004 -0.000001 0.000002 0.095762 -3.482750 -12.304506 -37.949842 -36.296650 -18.080088 0.091694 72.041830 -0.267561 -5.109326 -2.171541 -32.681718 -1.738477 -1.670999 3.393784 -0.252701 0.798113 21.448276 0.000004 0.000001 -0.000000 0.000001 -0.000001 0.000002 -4.978392 12.391671 9.407254 -1.210147 -0.220435 -2.120990 0.000001 0.000008 -0.000004 0.000000 -0.000001 0.000000 10.258591 13.576559 6.067477 0.012527 -0.647887 4.076589 0.000003 0.000002 -0.000006 0.000001 -0.000002 -0.000002 -0.824283 -13.700959 18.348834 -0.242207 2.213606 16.221208 -0.000005 -0.000000 -0.000012 -0.000002 -0.000001 -0.000003 -4.380729 -23.900591 30.060339 -0.233913 5.125300 12.870291 -0.000000 0.000002 0.000004 0.000001 0.000001 0.000003 -33.200901 -5.488541 17.267837 42.942260 -0.085731 -1.534898 6.474129 8.151216 -11.036868 -4.875291 -0.035908 0.292689 -0.000000 -0.000003 0.000001 -22.030565 8.528195 -0.288774 24.739531 -0.244736 0.871509 21.446126 -13.762604 12.664751 -0.012183 -0.109706 0.262090 0.000000 0.000001 0.000000 
-63.758369 181.499023 281.555725 3.133766 38.781783 -14.082250 4.471636 0.850627 -0.251780 8.973819 1.388081 -1.883713 8.973824 1.388069 -1.883715 10.419906 -0.877394 -0.981830 -11.755456 -18.098439 19.113233 -0.000001 0.000001 -0.000000 -0.000001 0.000001 -0.000000 -0.000001 0.000001 -0.000000 -1.016406 3.721874 9.326769 65.833147 71.088950 -94.188862 -0.490763 -110.093265 -0.291468 54.678878 22.965270 35.300938 1.641881 7.127216 -4.239653 -0.187951 -0.789334 -15.969039 -0.000008 -0.000005 -0.000003 0.000001 -0.000000 -0.000000 7.350854 -14.484207 -10.934839 -1.067044 0.182845 1.946087 0.000010 0.000008 0.000004 0.000000 0.000000 -0.000001 5.776135 -9.584530 -10.641331 0.033764 0.666541 -10.636467 0.000005 -0.000014 0.000000 -0.000003 -0.000002 0.000000 1.677302 11.039971 -8.046050 -0.183060 -2.876869 -23.912161 -0.000000 0.000011 -0.000003 0.000002 -0.000001 0.000002 0.734614 28.047567 -16.218790 -0.849518 -6.142174 -29.148269 -0.000009 0.000006 0.000004 0.000002 0.000004 0.000000 0.481674 -1.848294 -8.625994 -40.025434 -41.844249 -14.032712 0.273202 76.855221 -0.461414 -4.132791 -1.600107 -32.277794 -1.738481 -1.670996 3.393782 -0.252696 0.798113 21.448278 0.000003 -0.000004 0.000003 0.000004 -0.000001 0.000004 -4.978393 12.391673 9.407253 -1.210145 -0.220436 -2.121000 -0.000002 0.000011 -0.000003 0.000000 -0.000000 0.000001 10.258592 13.576565 6.067479 0.012521 -0.647894 4.076586 -0.000002 -0.000003 -0.000012 -0.000001 0.000004 0.000000 -0.824286 -13.700958 18.348839 -0.242207 2.213606 16.221209 -0.000001 -0.000002 -0.000012 -0.000001 -0.000001 0.000002 -4.380730 -23.900589 30.060342 -0.233913 5.125297 12.870294 0.000001 -0.000001 0.000009 -0.000001 0.000001 0.000001 -42.497225 -7.783956 16.083972 64.436080 -0.749689 -2.245328 -22.828705 4.482526 -2.882192 -0.180365 -0.026831 0.055020 -0.000000 0.000002 0.000000 -31.936513 3.952399 -3.577084 49.079106 0.145632 1.750579 -11.725000 -12.847901 7.694262 -1.755115 -0.106602 0.257415 0.000000 0.000001 -0.000001 
-68.104523 162.853409 283.121979 0.973733 39.821092 -11.353008 6.125922 0.578255 -0.124609 12.269135 0.771178 -1.593483 12.269131 0.771182 -1.593474 6.655423 -0.862292 -0.904504 -18.695474 -18.079950 16.474025 -0.000000 0.000001 -0.000000 -0.000000 0.000001 -0.000000 -0.000000 0.000001 -0.000000 -0.728853 2.444291 6.279826 46.459841 53.517452 -85.716395 -0.667391 -100.607348 -0.486012 42.829377 26.349067 33.852634 1.641873 7.127205 -4.239659 -0.187962 -0.789343 -15.969035 -0.000001 -0.000002 -0.000002 0.000002 0.000001 -0.000001 7.350849 -14.484220 -10.934828 -1.067054 0.182849 1.946083 0.000006 0.000008 0.000004 0.000004 0.000001 0.000001 5.776119 -9.584528 -10.641325 0.033766 0.666548 -10.636477 0.000003 -0.000018 -0.000001 -0.000002 0.000000 -0.000002 1.677312 11.039969 -8.046062 -0.183080 -2.876873 -23.912154 0.000003 0.000012 -0.000000 -0.000004 -0.000001 -0.000000 0.734620 28.047571 -16.218790 -0.849532 -6.142178 -29.148266 -0.000009 0.000004 0.000002 -0.000001 0.000001 -0.000000 0.900242 1.581571 -3.422001 -40.178984 -42.830487 -3.013387 0.583078 80.461274 -0.749974 19.396720 9.873661 -33.989716 -1.738483 -1.670998 3.393785 -0.252694 0.798113 21.448273 -0.000002 -0.000001 0.000005 0.000004 -0.000001 0.000001 -4.978394 12.391670 9.407256 -1.210144 -0.220433 -2.121000 -0.000001 0.000011 -0.000007 -0.000001 0.000002 -0.000002 10.258587 13.576563 6.067479 0.012525 -0.647893 4.076586 0.000001 0.000001 -0.000005 -0.000000 0.000003 -0.000001 -0.824286 -13.700959 18.348840 -0.242206 2.213608 16.221208 -0.000001 -0.000001 -0.000011 -0.000003 0.000001 0.000000 -4.380732 -23.900589 30.060346 -0.233915 5.125299 12.870285 -0.000000 -0.000000 0.000004 0.000000 0.000001 0.000001 -53.204028 -11.567673 15.786000 84.293858 -0.969552 -2.727680 -27.630144 0.679595 -5.209904 -3.192686 -0.031416 0.069721 -0.000000 0.000003 0.000000 -42.552826 3.542430 -7.661611 72.077531 0.530101 2.410044 -26.132949 -8.711677 9.498395 -0.012226 -0.109937 0.262633 -0.000000 -0.000002 0.000000 
-71.629181 150.233551 283.931702 -2.296416 38.889014 -8.347558 8.018762 0.370577 -0.073992 16.045356 0.267794 -1.392609 16.045352 0.267797 -1.392606 4.159452 -0.362717 -0.948694 -22.738282 -15.878195 13.972284 0.000000 0.000000 -0.000000 0.000000 0.000000 -0.000000 0.000000 0.000000 -0.000000 -0.411343 -0.535449 1.598412 23.082715 36.110227 -73.040991 0.519875 -85.264762 0.663283 23.191641 27.363780 32.224860 1.641874 7.127179 -4.239650 -0.187947 -0.789339 -15.969047 -0.000005 -0.000002 -0.000001 -0.000000 0.000003 -0.000000 7.350862 -14.484214 -10.934835 -1.067068 0.182844 1.946100 0.000008 0.000009 -0.000006 0.000004 0.000001 -0.000003 5.776126 -9.584549 -10.641331 0.033763 0.666542 -10.636467 0.000002 -0.000014 -0.000003 -0.000002 -0.000000 -0.000001 1.677294 11.039963 -8.046053 -0.183069 -2.876877 -23.912159 0.000000 0.000011 -0.000004 0.000004 0.000001 0.000003 0.734598 28.047564 -16.218786 -0.849543 -6.142183 -29.148263 -0.000008 0.000001 0.000002 -0.000001 0.000001 0.000002 1.014440 5.112185 0.744083 -31.593983 -32.192229 15.901012 0.468732 78.502424 -0.589869 -3.599336 -10.486774 -35.865607 -1.738481 -1.670996 3.393781 -0.252698 0.798114 21.448276 0.000002 -0.000001 0.000003 0.000001 -0.000001 -0.000001 -4.978394 12.391673 9.407256 -1.210145 -0.220434 -2.120998 0.000000 0.000010 -0.000006 -0.000001 0.000000 -0.000002 10.258591 13.576562 6.067479 0.012530 -0.647891 4.076583 0.000003 -0.000001 -0.000005 0.000003 -0.000000 0.000000 -0.824287 -13.700956 18.348837 -0.242206 2.213606 16.221211 -0.000001 -0.000000 -0.000008 -0.000001 -0.000001 0.000003 -4.380731 -23.900587 30.060342 -0.233914 5.125296 12.870288 -0.000003 -0.000001 0.000006 -0.000001 -0.000000 0.000000 -60.767257 -13.787596 17.269638 96.547019 -0.831706 -2.918783 -20.747591 -2.105668 -9.329269 -11.094156 -0.045851 0.085849 -0.000000 0.000001 0.000000 -51.678389 5.103038 -10.193194 87.453858 0.757022 2.751326 -21.163855 -2.208543 9.881410 -7.250265 -0.130688 1.849223 -0.000000 -0.000000 -0.000000 
